<svg xmlns="http://www.w3.org/2000/svg" xmlns:xlink="http://www.w3.org/1999/xlink" width="694.664" height="700.439" viewBox="0 0 694.664 700.439">
  <defs>
    <linearGradient id="linear-gradient" x1="-0.171" y1="0.448" x2="0.573" y2="0.449" gradientUnits="objectBoundingBox">
      <stop offset="0" stop-color="#ff75a3"/>
      <stop offset="1" stop-color="#9d37ce"/>
    </linearGradient>
  </defs>
  <path id="BlobTwo" d="M624.95,296.757c-19.579-62.768-83.155-101.2-114.668-158.915C491.2,102.886,483.5,60.356,454.3,33.283c-30.8-28.54-82.616-30.665-115.616-4.73-33.02,25.935-43.229,76.768-22.812,113.441,15.717,28.191,45.025,45.494,68.8,67.318s43.468,55.373,31.324,85.27c-12.194,30.007-49.925,40.235-82.3,39.068-52.449-1.886-102.025-22.782-152.02-38.818-21.734-6.965-44.416-13.122-67.109-10.677s-45.6,15.258-53.916,36.513c-4.69,11.985-4.361,25.486-1.3,37.99,7.4,30.206,28.3,49.675,54.914,63.526,24.608,12.8,55.124,24.049,49.116,57.429-4.441,24.638-37.81,48.6-21.125,75.092,9.749,15.5,35.535,18.77,51.941,20.068,65.422,5.169,130.8-8.6,194.231-25.406,62.618-16.6,126.354-37.262,175.44-79.542S644.249,358.607,624.95,296.757Z" transform="matrix(0.259, -0.966, 0.966, 0.259, -24.83, 606.538)" fill="url(#linear-gradient)" style="mix-blend-mode: hard-light;isolation: isolate"/>
</svg>
