<svg xmlns="http://www.w3.org/2000/svg" xmlns:xlink="http://www.w3.org/1999/xlink" width="429.315" height="435.515" viewBox="0 0 429.315 435.515">
  <defs>
    <linearGradient id="linear-gradient" x1="-0.171" y1="0.448" x2="0.573" y2="0.449" gradientUnits="objectBoundingBox">
      <stop offset="0" stop-color="#ff75a3"/>
      <stop offset="1" stop-color="#9d37ce"/>
    </linearGradient>
  </defs>
  <path id="BlobThree" d="M488.223,227.812c-14.865-47.655-63.133-76.831-87.059-120.652-14.486-26.54-20.335-58.83-42.5-79.384-23.38-21.668-62.724-23.282-87.779-3.591-25.07,19.691-32.82,58.284-17.319,86.127,11.933,21.4,34.184,34.54,52.238,51.11s33,42.041,23.782,64.739c-9.258,22.782-37.9,30.548-62.482,29.661-39.821-1.432-77.46-17.3-115.417-29.472-16.5-5.288-33.722-9.963-50.95-8.107S66.111,229.827,59.8,245.964c-3.561,9.1-3.311,19.35-.985,28.843,5.622,22.933,21.486,37.715,41.692,48.231,18.683,9.72,41.851,18.259,37.29,43.6-3.371,18.706-28.706,36.9-16.039,57.012,7.4,11.766,26.979,14.251,39.434,15.236,49.67,3.925,99.31-6.531,147.465-19.289,47.541-12.6,95.931-28.29,133.2-60.391S502.876,274.769,488.223,227.812Z" transform="translate(439.724 -57.091) rotate(90)" fill="url(#linear-gradient)" style="mix-blend-mode: hard-light;isolation: isolate"/>
</svg>
