<svg xmlns="http://www.w3.org/2000/svg" width="39.326" height="40.575" viewBox="0 0 39.326 40.575">
  <g id="createLogo" transform="translate(-125.83 -156.57)">
    <path id="Path_28616" data-name="Path 28616" d="M150.25,165.494" transform="translate(-2.411 -0.849)" fill="#1bcc96" stroke="#1bcc96" stroke-width="1"/>
    <path id="Path_28617" data-name="Path 28617" d="M165.7,189.351h-5.783v-5.783a1.349,1.349,0,0,0-2.7,0v5.783h-5.783a1.349,1.349,0,1,0,0,2.7h5.783v5.783a1.349,1.349,0,0,0,2.7,0v-5.783H165.7a1.349,1.349,0,1,0,0-2.7Z" transform="translate(-2.395 -2.535)" fill="#1bcc96" stroke="#1bcc96" stroke-linejoin="round" stroke-width="1"/>
    <path id="Path_28618" data-name="Path 28618" d="M161.077,171.006a3.92,3.92,0,0,0-.343-.5c-3.107-3.923-9.5-12.063-12.9-13.27a2.168,2.168,0,0,0-.773-.162h-11.24a9.5,9.5,0,0,0-9.5,9.5V185.08a9.5,9.5,0,0,0,9.5,9.5h8.9a1.349,1.349,0,1,0,0-2.7h-8.9a6.8,6.8,0,0,1-6.8-6.789V166.566a6.8,6.8,0,0,1,6.8-6.8h9.316v7.751a5.917,5.917,0,0,0,5.917,5.917h7.931V176.6a1.349,1.349,0,1,0,2.7,0v-3.4a4.232,4.232,0,0,0-.569-2.12Zm-10.028-.268a3.22,3.22,0,0,1-3.21-3.219v-7.266c1.286.9,3.606,3.147,7.787,8.21.575.692,1.2,1.466,1.843,2.275Z" transform="translate(0 0)" fill="#1bcc96" stroke="#1bcc96" stroke-linejoin="round" stroke-width="1"/>
  </g>
</svg>
