<svg xmlns="http://www.w3.org/2000/svg" xmlns:xlink="http://www.w3.org/1999/xlink" width="90" height="90" viewBox="0 0 90 90">
  <defs>
    <filter id="Path_31730" x="0" y="0" width="90" height="90" filterUnits="userSpaceOnUse">
      <feOffset dx="3" dy="8" input="SourceAlpha"/>
      <feGaussianBlur stdDeviation="3" result="blur"/>
      <feFlood flood-color="#606060" flood-opacity="0.259"/>
      <feComposite operator="in" in2="blur"/>
      <feComposite in="SourceGraphic"/>
    </filter>
    <filter id="Path_31727" x="18.314" y="16.313" width="47.911" height="47.911" filterUnits="userSpaceOnUse">
      <feOffset dy="3" input="SourceAlpha"/>
      <feGaussianBlur stdDeviation="3" result="blur-2"/>
      <feFlood flood-opacity="0.161"/>
      <feComposite operator="in" in2="blur-2"/>
      <feComposite in="SourceGraphic"/>
    </filter>
  </defs>
  <g id="Group_27150" data-name="Group 27150" transform="translate(-847 -2263)">
    <g transform="matrix(1, 0, 0, 1, 847, 2263)" filter="url(#Path_31730)">
      <g id="Path_31730-2" data-name="Path 31730" transform="translate(6 1)" fill="#1bcc96">
        <path d="M 47 70.5 L 25 70.5 C 21.82685470581055 70.5 18.74943351745605 69.87886810302734 15.85319995880127 68.65386962890625 C 13.05501079559326 67.4703369140625 10.54167747497559 65.77568817138672 8.382988929748535 63.61701202392578 C 6.224310874938965 61.45832061767578 4.529666900634766 58.94498825073242 3.346133232116699 56.14680099487305 C 2.121133327484131 53.25056838989258 1.5 50.17314529418945 1.5 47 L 1.5 25 C 1.5 21.82685470581055 2.121133327484131 18.74943351745605 3.346133232116699 15.85319995880127 C 4.529666900634766 13.05501079559326 6.224310874938965 10.54167747497559 8.382988929748535 8.382988929748535 C 10.54167747497559 6.224310874938965 13.05501079559326 4.529666900634766 15.85319995880127 3.346133232116699 C 18.74943351745605 2.121133327484131 21.82685470581055 1.5 25 1.5 L 47 1.5 C 50.17314529418945 1.5 53.25056838989258 2.121133327484131 56.14680099487305 3.346133232116699 C 58.94498825073242 4.529666900634766 61.45832061767578 6.224310874938965 63.61701202392578 8.382988929748535 C 65.77568817138672 10.54167747497559 67.4703369140625 13.05501079559326 68.65386962890625 15.85319995880127 C 69.87886810302734 18.74943351745605 70.5 21.82685470581055 70.5 25 L 70.5 47 C 70.5 50.17314529418945 69.87886810302734 53.25056838989258 68.65386962890625 56.14680099487305 C 67.4703369140625 58.94498825073242 65.77568817138672 61.45832061767578 63.61701202392578 63.61701202392578 C 61.45832061767578 65.77568817138672 58.94498825073242 67.4703369140625 56.14680099487305 68.65386962890625 C 53.25056838989258 69.87886810302734 50.17314529418945 70.5 47 70.5 Z" stroke="none"/>
        <path d="M 25 3 C 22.02869415283203 3 19.14786911010742 3.581260681152344 16.43753051757812 4.727638244628906 C 13.81814193725586 5.835540771484375 11.46505737304688 7.422233581542969 9.443645477294922 9.443645477294922 C 7.422233581542969 11.46505737304688 5.835540771484375 13.81814193725586 4.727638244628906 16.43753051757812 C 3.581260681152344 19.14786911010742 3 22.02869415283203 3 25 L 3 47 C 3 49.97130584716797 3.581260681152344 52.85212707519531 4.727638244628906 55.56246948242188 C 5.835540771484375 58.18185806274414 7.422233581542969 60.53494262695312 9.443645477294922 62.55635070800781 C 11.46505737304688 64.57776641845703 13.81814193725586 66.16445922851562 16.43753051757812 67.27236175537109 C 19.14786911010742 68.41873931884766 22.02869415283203 69 25 69 L 47 69 C 49.97130584716797 69 52.85212707519531 68.41873931884766 55.56246948242188 67.27236175537109 C 58.18185806274414 66.16445922851562 60.53494262695312 64.57776641845703 62.55635070800781 62.55635070800781 C 64.57776641845703 60.53494262695312 66.16445922851562 58.18185806274414 67.27236175537109 55.56246948242188 C 68.41873931884766 52.85212707519531 69 49.97130584716797 69 47 L 69 25 C 69 22.02869415283203 68.41873931884766 19.14786911010742 67.27236175537109 16.43753051757812 C 66.16445922851562 13.81814193725586 64.57776641845703 11.46505737304688 62.55635070800781 9.443645477294922 C 60.53494262695312 7.422233581542969 58.18185806274414 5.835540771484375 55.56246948242188 4.727638244628906 C 52.85212707519531 3.581260681152344 49.97130584716797 3 47 3 L 25 3 M 25 0 L 47 0 C 60.8071174621582 0 72 11.1928825378418 72 25 L 72 47 C 72 60.8071174621582 60.8071174621582 72 47 72 L 25 72 C 11.1928825378418 72 0 60.8071174621582 0 47 L 0 25 C 0 11.1928825378418 11.1928825378418 0 25 0 Z" stroke="none" fill="#1bcc96"/>
      </g>
    </g>
    <g id="Icon_feather-plus-circle" data-name="Icon feather-plus-circle" transform="translate(874.314 2285.313)">
      <g transform="matrix(1, 0, 0, 1, -27.31, -22.31)" filter="url(#Path_31727)">
        <path id="Path_31727-2" data-name="Path 31727" d="M32.911,17.956A14.956,14.956,0,1,1,17.956,3,14.956,14.956,0,0,1,32.911,17.956Z" transform="translate(24.31 19.31)" fill="#fff"/>
      </g>
      <path id="Path_31728" data-name="Path 31728" d="M18,12V23.964" transform="translate(-3.044 -3.027)" fill="#1bcc96" stroke="#1bcc96" stroke-linecap="round" stroke-linejoin="round" stroke-width="3"/>
      <path id="Path_31729" data-name="Path 31729" d="M12,18H23.964" transform="translate(-3.027 -3.045)" fill="#1bcc96" stroke="#1bcc96" stroke-linecap="round" stroke-linejoin="round" stroke-width="3"/>
    </g>
  </g>
</svg>
