<svg xmlns="http://www.w3.org/2000/svg" xmlns:xlink="http://www.w3.org/1999/xlink" width="84" height="84" viewBox="0 0 84 84">
  <defs>
    <filter id="Ellipse_86" x="0" y="0" width="84" height="84" filterUnits="userSpaceOnUse">
      <feOffset dy="3" input="SourceAlpha"/>
      <feGaussianBlur stdDeviation="3" result="blur"/>
      <feFlood flood-color="#fba80e" flood-opacity="0.2"/>
      <feComposite operator="in" in2="blur"/>
      <feComposite in="SourceGraphic"/>
    </filter>
  </defs>
  <g id="Facebook" transform="translate(-924 -4054)">
    <g transform="matrix(1, 0, 0, 1, 924, 4054)" filter="url(#Ellipse_86)">
      <circle id="Ellipse_86-2" data-name="Ellipse 86" cx="33" cy="33" r="33" transform="translate(9 6)" fill="#fba80e"/>
    </g>
    <g id="Symbols" transform="translate(958.678 4078.285)">
      <g id="chrome-store-screen-3" transform="translate(0.639 0.736)">
        <g id="MACBOOK_1" transform="translate(0 0)">
          <g id="display-2" transform="translate(0 0)">
            <g id="facebook-2" data-name="facebook" transform="translate(0 0)">
              <path id="Shape" d="M60.6,66.759H54.678V52.778H51.716V47.961h2.962V45.068c0-3.93,1.671-6.268,6.423-6.268h3.955V43.62H62.584c-1.85,0-1.972.673-1.972,1.93L60.6,47.961h4.479l-.524,4.817H60.6V66.759Z" transform="translate(-51.716 -38.801)" fill="#fff" fill-rule="evenodd"/>
            </g>
          </g>
        </g>
      </g>
    </g>
  </g>
</svg>
