<svg xmlns="http://www.w3.org/2000/svg" width="184.104" height="158.568" viewBox="0 0 184.104 158.568">
  <g id="Group_26670" data-name="Group 26670" transform="translate(-6915.638 3626.464)">
    <path id="Path_31713" data-name="Path 31713" d="M7099.742-3292.192c-6.579-.032-13.65-.11-20.305-.294.127,8.115.246,16.883.34,25.659l1.708.091c5.893.308,12.712.665,18.257.925v1.178c-5.558-.261-12.4-.62-18.316-.93l-1.636-.085c.078,7.483.137,14.95.164,22v.079c3.511.037,7.147.035,11.134.012.551,0,4.361-.2,8.653-.464v1.177c-4.28.258-8.082.457-8.649.461-3.989.023-7.625.024-11.134-.011.02,5.956.019,11.592-.015,16.661,7.322,0,14.2-.1,19.8-.386V-3225c-5.647.3-12.519.414-19.806.418-.032,4.355-.087,8.261-.17,11.554h-1.184c.082-3.282.138-7.189.169-11.554-6.9-.007-14.129-.109-21.015-.246q.049.729.1,1.452c.256,3.731.544,7.26.861,10.349h-1.185c-.321-3.089-.609-6.587-.863-10.271q-.053-.772-.1-1.554c-6.378-.131-12.423-.288-17.589-.422l-1.946-.051a119.255,119.255,0,0,1-.557,12.3h-1.206l.019-.113a113.476,113.476,0,0,0,.561-12.215c-4.945-.127-8.82-.218-11.058-.218-5.432,0-10.465.115-15.343.281q.054,6.151.09,12.265h-1.188c-.022-4.11-.054-8.177-.088-12.223-3.443.124-6.818.272-10.211.419-2.83.124-5.671.248-8.578.36.005,3.6-.052,7.244-.182,11l-.016.441h-1.187l.017-.478c.129-3.733.188-7.346.182-10.922-3.891.144-7.907.263-12.164.325-.567.008-1.185.021-1.847.035.165,3.717.264,7.325.366,11.039h-1.186c-.1-3.7-.2-7.293-.367-11.009-4.788.129-11.457.412-18.33.83.092,3.368.169,6.753.218,10.178h-1.187q-.073-5.094-.217-10.1c-1.653.1-3.312.217-4.954.335-4.438.322-8.746.7-12.462,1.125.011,2.868-.032,5.748-.152,8.645h-1.191c.119-2.849.163-5.682.155-8.505-2.122.258-4.019.533-5.593.824l-2.833.523c-.442.082-4.645.7-10.132,1.387.049,1.952.082,3.887.091,5.771h-.843v-27.7c.067,3.211.209,6.813.358,10.582.13,3.316.266,6.762.361,10.17,5.4-.677,9.513-1.282,9.95-1.364l2.832-.522c1.635-.3,3.6-.586,5.8-.852-.055-6.715-.393-13.372-.732-20.032-6.021.074-12.48.15-18.57.192v-1.174c6.063-.042,12.5-.118,18.51-.192-.388-7.627-.756-15.262-.683-23.014-5.954.581-11.9,1.015-17.828,1.131v-1.174c5.917-.117,11.867-.556,17.842-1.141l.022-1.6c.084-5.938.027-11.729-.031-17.5q-.024-2.491-.045-4.98c-5.558-.255-11.833-.554-17.789-.845v-1.177c5.953.29,12.224.591,17.78.846-.035-5.085-.03-10.189.11-15.4.037-1.345.069-2.785.1-4.284h1.187c-.028,1.512-.061,2.961-.1,4.312-.141,5.221-.145,10.334-.111,15.427,7.915.361,14.155.618,15.522.6l.709-.011c-.416-3.47-.924-6.771-1.431-10.072-.517-3.357-1.033-6.714-1.453-10.255h1.2c.415,3.471.924,6.775,1.431,10.08.515,3.347,1.03,6.695,1.449,10.226,5.276-.113,10.152-.388,14.821-.734q.1-2.017.22-4.09c.264-4.813.542-9.875.654-15.266l0-.216h1.187l-.006.239c-.112,5.449-.391,10.5-.653,15.3q-.111,2-.213,3.938c3.334-.258,6.57-.548,9.78-.834,2.842-.256,5.664-.508,8.518-.735.1-3.975.247-7.9.394-11.762.078-2.066.157-4.116.226-6.151h1.188q-.1,3.073-.228,6.193c-.145,3.81-.292,7.677-.387,11.626,6.475-.5,13.143-.844,20.589-.767-.015-3.089-.053-6.113-.09-9.128-.033-2.636-.065-5.265-.083-7.924h1.187c.018,2.655.05,5.279.083,7.909.038,3.026.075,6.059.09,9.157,2.888.047,5.894.159,9.053.35,7.17.434,12.148.433,16.582.353-.185-6.33-.388-12.353-.606-17.769h1.178c.221,5.418.426,11.43.611,17.744.637-.013,1.265-.027,1.89-.042,4.646-.108,9.111-.211,15.481.141a98.953,98.953,0,0,1,.207-17.844h1.2a97.734,97.734,0,0,0-.208,17.914c2.1.13,4.4.308,6.979.55,4.591.431,10.37.714,16.575.9-.111-7.165-.225-13.772-.331-19.363h1.162c.11,5.615.229,12.233.341,19.4,6.656.185,13.738.263,20.324.294v1.174ZM6935.4-3242.763c.337,6.617.673,13.234.732,19.907,3.709-.422,7.986-.8,12.386-1.115,1.657-.12,3.334-.234,5-.339-.137-4.756-.3-9.485-.471-14.237q-.078-2.2-.155-4.4c-4.007.017-9.72.088-16.092.167l-1.4.018Zm-.744-24.29c-.078,7.76.293,15.441.684,23.116l1.448-.018c6.35-.079,12.048-.15,16.067-.168-.1-2.908-.2-5.835-.282-8.8-.086-3-.163-5.922-.238-8.8-.064-2.452-.129-4.874-.2-7.309l-3.617.425c-4.63.545-9.251,1.09-13.866,1.553Zm.036-2.652-.021,1.467c4.559-.46,9.131-1,13.711-1.538q1.86-.219,3.723-.438c-.114-3.916-.244-7.886-.414-12.1-.133-3.275-.39-6.325-.717-9.244l-.83.013c-1.385.018-7.622-.239-15.527-.6q.019,2.459.045,4.917c.057,5.777.115,11.575.03,17.522Zm17.476-21.877c.323,2.906.577,5.947.709,9.222.169,4.166.3,8.111.411,12.009,4.554-.527,9.116-1.027,13.682-1.426-.238-2.488-.4-4.986-.454-7.5-.09-4.231.057-8.537.278-13.031-4.608.339-9.42.611-14.626.723Zm1.154,22.412c.07,2.471.134,4.928.2,7.419.075,2.853.151,5.75.239,8.8q.127,4.446.282,8.829c2.117,0,3.639.011,4.364.054l8.382.5q2.253.133,4.575.21c-.493-3.314-1.079-6.659-1.668-10.032-.991-5.66-1.994-11.4-2.607-17.207-4.593.4-9.183.906-13.766,1.435Zm.761,26.218q.076,2.189.154,4.367c.167,4.74.334,9.454.47,14.2,6.85-.416,13.508-.7,18.309-.827-.149-3.092-.349-6.286-.637-9.707-.2-2.4-.5-4.826-.843-7.264q-2.443-.081-4.816-.219l-8.383-.5c-.71-.042-2.192-.058-4.254-.054Zm19.482,7.937c.289,3.434.489,6.651.638,9.774.677-.016,1.308-.027,1.887-.037,4.247-.062,8.269-.181,12.175-.326-.008-1.687-.031-3.366-.066-5.049-.079-3.787-.224-7.594-.422-11.514-5.156.121-10.193.15-15.035.019.339,2.393.623,4.77.822,7.131Zm-2.7-18.581c.6,3.452,1.2,6.875,1.705,10.268,4.873.136,9.946.109,15.146-.012q-.122-2.264-.263-4.586l-.079-1.277c-.438-7.2-.722-13.048-.9-18.918-.033-1.116-.062-2.228-.087-3.348l-1.375,0c-5.583,0-11.166.3-16.744.766.609,5.761,1.608,11.473,2.594,17.11Zm-3.165-25.7c.054,2.481.214,4.953.452,7.419,5.614-.468,11.236-.771,16.863-.771l1.35,0c-.09-4.442-.126-9.048-.126-14.386q0-3.493.079-6.932c-2.808.224-5.587.472-8.384.723-3.265.292-6.554.585-9.947.847-.226,4.534-.376,8.867-.286,13.1Zm19.809-14.762q-.075,3.466-.08,7.026c0,5.388.035,10,.123,14.39,7.592.04,14.255.257,20.41.589q.023-7.351.126-14.739c.041-2.754.05-5.422.042-8.039-7.459-.077-14.137.274-20.621.772Zm.069,22.594c.025,1.113.053,2.214.086,3.312.173,5.819.457,11.662.9,18.882l.078,1.277q.143,2.343.264,4.625c6.262-.161,12.7-.449,19.167-.744-.076-8.914-.132-17.823-.111-26.763-6.142-.33-12.8-.548-20.381-.589Zm1.386,29.27c.2,3.905.341,7.712.42,11.521q.053,2.51.066,5.025c2.886-.111,5.714-.235,8.53-.357,3.409-.149,6.8-.3,10.252-.422q-.035-3.957-.074-7.9-.04-4.307-.079-8.609c-6.454.294-12.869.58-19.117.741Zm20.382,7.859q.037,3.932.073,7.867c4.9-.168,9.944-.284,15.353-.284,2.118,0,6.04.092,11.074.221.06-4.9.067-10.829.029-17.36-8.7.089-17.682.494-26.608.9q.038,4.325.08,8.655Zm-.071-52.442q-.108,7.415-.126,14.79c8.922.5,16.814,1.245,25,2.011l1.393.131c-.05-2.693-.1-5.4-.162-8.1-.119-5.476-.255-10.923-.4-16.173-4.467.082-9.479.083-16.686-.353-3.13-.189-6.112-.3-8.976-.347.008,2.616,0,5.285-.042,8.038Zm-.13,15.968c-.021,8.9.035,17.77.111,26.643,8.927-.406,17.911-.811,26.61-.9-.048-7.337-.152-15.391-.3-23.6l-1.526-.143c-8.15-.764-16.006-1.5-24.895-2Zm27.018-23.33c.15,5.254.288,10.7.405,16.174.06,2.743.115,5.493.165,8.231,5.876.547,11.974,1.1,18.774,1.579-.107-5.095-.6-10.509-1.1-16.021-.3-3.267-.6-6.567-.825-9.857-6.41-.359-10.879-.255-15.532-.148l-1.884.042Zm.592,25.587c.146,8.16.248,16.169.3,23.476,5.883-.041,11.629.07,17.13.43l1.42.093c-.254-7.884-.317-14.676-.155-18.037.07-1.429.092-2.894.079-4.387-6.8-.479-12.9-1.028-18.771-1.575Zm.3,24.651c.038,6.539.031,12.478-.03,17.4l1.957.051c5.136.134,11.148.29,17.487.422-.361-5.729-.642-11.775-.832-17.344l-1.535-.1c-5.473-.359-11.19-.469-17.048-.43Zm19.575-18.634c-.162,3.355-.1,10.161.16,18.061l.394.026c6.25.41,11.617.65,16.962.778,1.534.036,3.068.064,4.621.084v-.066c-.027-7.069-.085-14.558-.162-22.057-3.731-.2-6.871-.357-8.729-.44-4.714-.21-9.068-.464-13.165-.743.012,1.482-.012,2.937-.081,4.358Zm.2,19.242c.191,5.555.472,11.581.833,17.291,6.918.139,14.182.247,21.1.262.031-5.067.034-10.708.014-16.673-1.565-.02-3.11-.047-4.654-.083-5.393-.13-10.776-.37-17.008-.779l-.28-.018Zm-1.247-40.99c.509,5.573,1.007,11.049,1.111,16.209,4.116.282,8.493.537,13.233.749,1.894.084,4.993.245,8.666.436-.092-8.774-.207-17.534-.33-25.631-6.25-.186-12.078-.47-16.7-.906-2.5-.235-4.742-.41-6.789-.537C7054.995-3290.733,7055.291-3287.491,7055.583-3284.283Z" transform="translate(0 -254.868)" fill="#191919"/>
    <g id="Group_26669" data-name="Group 26669" transform="translate(6951.634 -3626.464)">
      <path id="Path_31714" data-name="Path 31714" d="M7298.055-3277.108l-.019.114a3.736,3.736,0,0,1,.558.85,3.083,3.083,0,0,1,.244,2.154,17.433,17.433,0,0,1-3.26,1.146c-.143-.315-.267-.612-.375-.9a4.567,4.567,0,0,1-.9-2.741,3.232,3.232,0,0,1-.032-.847l-.005-.292c-.011-.438-.02-.919-.059-1.427a.9.9,0,0,1,.221-.732,1.129,1.129,0,0,1,1.654-.023,2.57,2.57,0,0,1,.606.792,2.166,2.166,0,0,1,1.2,1.023h0A1.443,1.443,0,0,1,7298.055-3277.108Z" transform="translate(-7259.492 3344.835)" fill="#191919"/>
      <path id="Path_31715" data-name="Path 31715" d="M7359.572-3526.911c.17.15.329.278.477.387a.485.485,0,0,1,.073.03,1.256,1.256,0,0,0,.983.17l.02,0a1.187,1.187,0,0,1,.794,0l.1-.072a7.251,7.251,0,0,0-1.947-.485,4.5,4.5,0,0,0-.5-.024Zm4.3,6.589a10.386,10.386,0,0,1-1.857.191,9.624,9.624,0,0,1-3.761-.561,3.667,3.667,0,0,1-1.393-.456c-1.356-.8-2.123-2.346-1.777-4.908a5.338,5.338,0,0,1-.365-1.378,3.022,3.022,0,0,1,2.381-3.452,3.793,3.793,0,0,1,3-1.053c3.824,1.708,2.53,2.243,1.142,2.768-.274-.023-.535-.041-.784-.051a3.917,3.917,0,0,0-.706.334l.075.007a7.962,7.962,0,0,1,1.655.348c2.733.839,2.26,2.388,1.339,4.031a2.3,2.3,0,0,1-1.412.439,2.284,2.284,0,0,1-.531-.087,5.949,5.949,0,0,1-.9-.222,7.472,7.472,0,0,1-2.771-1.6,5.046,5.046,0,0,0-.186.472l.079.1a7.469,7.469,0,0,0,2.216,1.84,4.513,4.513,0,0,0,1.541.523,11.57,11.57,0,0,0,1.885-.847l.222-.128C7365.305-3524.058,7365.934-3523.034,7363.869-3520.322Z" transform="translate(-7308.68 3549.604)" fill="#191919"/>
      <path id="Path_31716" data-name="Path 31716" d="M7330.53-3434.15l0,.417a1.221,1.221,0,0,1,.246-.08,1.148,1.148,0,0,1,.293-.023,2.879,2.879,0,0,0,.107-1.434.2.2,0,0,0-.145-.129,11.89,11.89,0,0,0-.5,1.249Zm-1.5-3,1.557-.845a1.673,1.673,0,0,1,1.118-.671c.946-.032,1.785.917,2.274,3.46.865,4.5-.608,6.119-2.511,6.186a4.011,4.011,0,0,1-1.344-.2,1.124,1.124,0,0,1-1.117-.492q-.283-.161-.548-.348a5.655,5.655,0,0,1-2.164-2.854c-.5-1.686.064-3.388,2.734-4.237Zm-.3,3.479c.015-.37.043-.771.087-1.2-1.05.488-1.339,1.077-1.18,1.614a2.776,2.776,0,0,0,.887,1.2,10.709,10.709,0,0,1,.206-1.61Zm3.938-.944a6.751,6.751,0,0,1-.23,1.855,2.282,2.282,0,0,1,.126.429c.007.04.013.078.018.117a5.334,5.334,0,0,0,.086-2.4Zm-.662-2.034a2.8,2.8,0,0,1,.4.725c-.13-.529-.234-.743-.312-.741A.325.325,0,0,0,7332-3436.65Z" transform="translate(-7285.458 3473.743)" fill="#191919"/>
      <path id="Path_31717" data-name="Path 31717" d="M7327.7-3342.917a1.229,1.229,0,0,1,.015,1.29c-.261.321-.722.22-1.028-.23-.133-.193-.263-.375-.39-.546a5.578,5.578,0,0,1-.621.08q-.335.025-.685.017a4.131,4.131,0,0,1-2.64-.1,4.115,4.115,0,0,1-1.013-.568,12.368,12.368,0,0,1-1.188-.44l.018-.3a3.1,3.1,0,0,1-.387-3.71,2.01,2.01,0,0,1,.145-1.092c.328-.75,1.354-1.08,2.6-1.1a3.43,3.43,0,0,1,.4-.068,3.59,3.59,0,0,1,.807,0,1.789,1.789,0,0,1,.112-.2l0,0,.005-.012.012-.014a.5.5,0,0,1,.667-.218,7.23,7.23,0,0,1,2.066,1.307,4.588,4.588,0,0,1,2.744,2.271,1.809,1.809,0,0,1-.209,1.666,2.125,2.125,0,0,1,.007.724,1.417,1.417,0,0,1-1.142,1.191c-.092.023-.192.044-.3.061Zm-2.263-2.718c.119.107.24.22.362.341l.29-.088C7325.859-3345.48,7325.643-3345.563,7325.433-3345.636Z" transform="translate(-7279.936 3401.791)" fill="#191919"/>
      <path id="Path_31718" data-name="Path 31718" d="M7260.324-3425.731a1.2,1.2,0,0,1,0-1.373c.284-.289.745-.14,1.032.332a10.609,10.609,0,0,0,1.5,1.915,17.168,17.168,0,0,1,4.248,2.63v0a1.418,1.418,0,0,1,.491,1.021.736.736,0,0,1-.412.8,1.348,1.348,0,0,1,.075.914,1.486,1.486,0,0,1-.629.83,1.4,1.4,0,0,1-.916.811c-.959.289-2.785-.3-5.787-2.762a1.41,1.41,0,0,1-.521-1.073c-.043-2.053.518-3.027,1.391-3.33q-.248-.349-.469-.713Zm1.412,2.668c-.434.094-.748.439-.846,1.169l.017.014a.861.861,0,0,1,.167-.49A4.619,4.619,0,0,1,7261.735-3423.063Z" transform="translate(-7231.188 3464.46)" fill="#191919"/>
      <path id="Path_31719" data-name="Path 31719" d="M7237.279-3352.069a2.572,2.572,0,0,1,3.038.366,5.141,5.141,0,0,1,.472-.941.553.553,0,0,1,.3-.286l.028-.011v0l.051-.013c.375-.065.8.324.94.871.016.067.032.135.048.2,1.256-.619,2.077-.328,2.544.551.458.862.313,2.468-.208,4.288a8.392,8.392,0,0,1,.131,4.016,6.572,6.572,0,0,1-1.6,3.072c-.719,1.609-1.846,2.568-3.454,2.082-.238.074-.485.143-.741.2a2.043,2.043,0,0,1-1.67.4,2.06,2.06,0,0,1-.261-.1c-.116.01-.234.02-.353.027h0a.865.865,0,0,1-.743-.511l-.023-.04h0l-.021-.037a2.672,2.672,0,0,1-.256-1.243,12.724,12.724,0,0,1-.56-3.857c-.123-5.545.964-8.185,2.335-9.05Zm-.406,12.637.022.035c.3-.037.595-.08.873-.134v-.029a6.1,6.1,0,0,1,.023-.678,2.819,2.819,0,0,1-.48-.464l0,0-.03-.035a9.257,9.257,0,0,0-.409,1.308Zm6.7-9.815a2,2,0,0,0,.026-1.18c-.028-.053-.159-.013-.41.143a6.657,6.657,0,0,1,.383,1.037Zm-6.172,3.984c.269-.562.552-1.118.833-1.65.208-.584.414-1.1.617-1.57a9.426,9.426,0,0,0-1.45,3.22Zm3.4-.865.033.063c.028-.248.045-.5.049-.75q-.118.211-.239.418C7240.689-3346.311,7240.741-3346.222,7240.792-3346.128Z" transform="translate(-7211.293 3404.044)" fill="#191919"/>
      <path id="Path_31720" data-name="Path 31720" d="M7264.992-3516.839a5.841,5.841,0,0,1-.164.633l.027.045a1.6,1.6,0,0,1,.119.224c1.882,1.321,2.6,2.671,2.545,3.91-.079,1.864-2.231,3.2-4.683,3.623a10.176,10.176,0,0,1-1.289.142,3.256,3.256,0,0,1-.35.1,3.071,3.071,0,0,1-2.165-.317,5.083,5.083,0,0,1-2.71-1.5,4.4,4.4,0,0,1-.848-4.188c-.169-.279-.34-.574-.514-.884h0a1.453,1.453,0,0,1-.179-.877,5.822,5.822,0,0,1,.542-1.929,4.794,4.794,0,0,1-.079-1.951c.308-1.5,1.646-2.162,4.591-.965a2.268,2.268,0,0,1,3.155.971,5,5,0,0,1,.485.971q.478.3.989.644a1.4,1.4,0,0,1,.525,1.35Zm-6.811-2.646c-.867-.168-1.329.038-1.486.484a3.537,3.537,0,0,1,.967-.114l.179,0c.116-.13.229-.255.34-.372Zm7.273,7.655c-.021.1-.043.191-.066.283a1.486,1.486,0,0,0,.672-1.062c.017-.387-.3-.861-1.078-1.421A3.216,3.216,0,0,1,7265.455-3511.83Z" transform="translate(-7227.426 3541.017)" fill="#191919"/>
      <path id="Path_31721" data-name="Path 31721" d="M7310.636-3600.668l.093.168,0-.042,0-.03c-.006-.062-.018-.129-.031-.2-.1-.143-.2-.292-.3-.445q.117.254.244.547Zm2.01,6.794a2.339,2.339,0,0,1-1.073.078,3.408,3.408,0,0,1-.436-.092l-.11.315,0,0a.628.628,0,0,1-.228.316c-.319.221-.777-.009-1.021-.515q-.28-.579-.514-1.165a6.964,6.964,0,0,1-1.2-1.34,8.415,8.415,0,0,1-1.08-7.013l.382-1.478c.071-.375.328-.6.651-.531a3.826,3.826,0,0,1,.841.4,5.014,5.014,0,0,1,2.792,2.722,14.968,14.968,0,0,1,.905,1.755,9.013,9.013,0,0,1,1.39,4.418,3.142,3.142,0,0,1-.211,1.081l-1.087,1.055Zm-2.788-5.1-.1-.241c-.08-.179-.17-.368-.269-.569.017.263.044.541.085.83a4.155,4.155,0,0,0,.431.348c-.031-.085-.064-.173-.1-.262-.018-.033-.035-.07-.051-.106Zm.335,2.453-.053-.027.037.112Z" transform="translate(-7269.626 3609.263)" fill="#191919"/>
      <path id="Path_31722" data-name="Path 31722" d="M7190.047-3342.691c-.673.6-.938.843-2.168-1.943a3.729,3.729,0,0,1-2.055-3.265,12.142,12.142,0,0,1-.752-2.92l-.084-.2v0a1.173,1.173,0,0,1,.058-1.144c.505-.622,1.363-1.4,2.375-.849a2.83,2.83,0,0,1,1.053,1.129,1.658,1.658,0,0,1,.741.15v0c1.337.615,2.456,2.972,2.06,8.433,0,.046-.005.09-.012.135-.076.5-.459.723-.854.491-.232-.135-.308-.067-.361-.018Zm-.156-4.489a4.7,4.7,0,0,0-.562-2.452c.159.61.3,1.315.429,2.13C7189.8-3347.393,7189.849-3347.286,7189.891-3347.179Z" transform="translate(-7170.579 3404.239)" fill="#191919"/>
      <path id="Path_31723" data-name="Path 31723" d="M7201.345-3621.842a1.2,1.2,0,0,1-.309-.366c-.039.017-.072.034-.106.051a3.187,3.187,0,0,0,.371,1.02c.057.1.118.2.186.3a5.878,5.878,0,0,1,.479-.5c-.263-.2-.475-.368-.621-.5Zm4.661,3.3a13.4,13.4,0,0,1-2.127-1.4,1.339,1.339,0,0,0-1.045.479,10.93,10.93,0,0,0,3.878,1.711c-.224-.252-.459-.516-.706-.785Zm-3.207-7.859c1.422.3,3.136,1.639,4.747,4.612a6.567,6.567,0,0,1,2.36,3.752,3.252,3.252,0,0,1,.183.822,1.911,1.911,0,0,1-.183,1.077,1.161,1.161,0,0,1-.254.508,3.622,3.622,0,0,1,.22.729l.15-.008a3.31,3.31,0,0,0,1.1-.246c.35-.151.8.156,1,.688s.079,1.084-.27,1.236a4.2,4.2,0,0,1-1.408.318,9.853,9.853,0,0,1-5.075-1.292l-.045-.024c-.188-.1-.374-.212-.558-.328a7.428,7.428,0,0,1-6.673-6.355,11.415,11.415,0,0,1-.146-2.363,2.833,2.833,0,0,1,.285-1.445,2.108,2.108,0,0,1,2.254-1.414,3.47,3.47,0,0,1,.385.039A2.592,2.592,0,0,1,7202.8-3626.4Z" transform="translate(-7181.203 3626.464)" fill="#191919"/>
      <g id="Group_26668" data-name="Group 26668" transform="translate(15.318 17.926)">
        <path id="Path_31724" data-name="Path 31724" d="M7193.416-3527.884c-.067-1.735.216-3.105,1.558-2.433a2.657,2.657,0,0,1,1.187,1.354.945.945,0,0,1,.042.213c.042.432.088.931.124,1.463a4.8,4.8,0,0,1,1.531,2.541,7.934,7.934,0,0,1,.308,1.606,3.515,3.515,0,0,1,.059.391,2.588,2.588,0,0,1-.025.7c-.009.243-.027.48-.058.707a4.711,4.711,0,0,1-.13.651l.012.112.016.149-.089-.062c-.317.939-.951,1.474-1.97,1.091a3.077,3.077,0,0,1-2.281.131,1.618,1.618,0,0,1-.542-.3,1.6,1.6,0,0,1-.127-.1h0l0,0a2.925,2.925,0,0,1-.965-1.522c-.111-.052-.226-.107-.343-.168a2.727,2.727,0,0,1-1.1-1.154h0a4.637,4.637,0,0,1-.019-2.936,9.119,9.119,0,0,1,1.361-3.184c.174-.136.533-.016.9.27a5.708,5.708,0,0,1,.556.482Zm-.262,8.318-.126-.1C7193.071-3519.632,7193.112-3519.6,7193.154-3519.566Z" transform="translate(-7190.371 3530.491)" fill="#191919"/>
      </g>
      <path id="Path_31725" data-name="Path 31725" d="M7193.463-3431.5a3.118,3.118,0,0,1-.014-.5h0c-.081-.075-.162-.155-.244-.236a1.409,1.409,0,0,1-.375-1.4l0-.015a5.331,5.331,0,0,1,.2-1.632,2.074,2.074,0,0,1,1.1-1.382,2.022,2.022,0,0,1,.842-.167,1.864,1.864,0,0,1,.2-.08c.365-1.275.871-1.622,1.368-1.411a2.348,2.348,0,0,1,1.006,1.314,4.986,4.986,0,0,1,1.535.936,1.41,1.41,0,0,1,.5.953,5.5,5.5,0,0,1,.024.744,1.444,1.444,0,0,1,.15.408,4.56,4.56,0,0,1,.06,1.585,3.444,3.444,0,0,1-.459,1.335c-2.078,3.309-3.779,3.229-4.864,1.871a4.88,4.88,0,0,1-.82-1.693A1.485,1.485,0,0,1,7193.463-3431.5Z" transform="translate(-7177.004 3473.509)" fill="#191919"/>
      <path id="Path_31726" data-name="Path 31726" d="M7112.146-3464.464a1.359,1.359,0,0,1-.623-1.121,5.736,5.736,0,0,1-1.97-3.014l-.014-.014a1.449,1.449,0,0,1-.436-1.109c.009-.14.022-.281.039-.422a7.352,7.352,0,0,1,.116-3.774c-.142-.124-.286-.254-.433-.388a1.424,1.424,0,0,1-.442-1.291c.054-.263.094-.515.126-.711.131-.814.142-.868.908-1.889,3.57-4.75,6.859-3.728,9.1-.6a15.335,15.335,0,0,1,2.262,5.236,16.811,16.811,0,0,1,.417,5.7c-.469,4.017-2.763,6.718-7.637,4.145l-1.415-.75Zm2.318-.774c3.357,1.438,4.955-.521,5.289-3.383a14.005,14.005,0,0,0-.351-4.76,12.223,12.223,0,0,0-1.8-4.2q-.149-.209-.307-.4a11.508,11.508,0,0,1-.042,1.893,3.916,3.916,0,0,1,.45.509,3.817,3.817,0,0,1,1.438,2.368,7.167,7.167,0,0,1-1.4,5.259,7.189,7.189,0,0,1-3.281,2.712Zm-1.777-8.464,0,0a1.609,1.609,0,0,0,.58-.4l.107-.114a3.5,3.5,0,0,0-.69.515Zm.682,2.1c-.087-.014-.177-.03-.269-.051a.62.62,0,0,1-.556-.162,6.649,6.649,0,0,1-.97-.438,8.283,8.283,0,0,0-.546,1.133,5.982,5.982,0,0,0,.427,1.425,4.876,4.876,0,0,0,1.736-.281,3.659,3.659,0,0,0,1.326-.778.467.467,0,0,1,.042-.036,1.775,1.775,0,0,0,.535-.96c0-.03.008-.062.01-.093a2.8,2.8,0,0,1-1.735.242Zm1.675-2.8.056-.084c-.216-.006-.445,0-.692.008.175.012.384.039.636.076Zm1.8.251a5.53,5.53,0,0,1-.552,1.177,4.531,4.531,0,0,1,.239.948,3.106,3.106,0,0,0,.471-1.789,1.1,1.1,0,0,0-.079-.3l-.08-.039Zm-1.018-2.812a8.169,8.169,0,0,0,.037-1.39c-2.163-1.216-3.595-.128-4.347,1.712a5.359,5.359,0,0,1,3.928-.448C7115.571-3477.053,7115.7-3477.011,7115.825-3476.964Z" transform="translate(-7108.358 3508.539)" fill="#191919"/>
    </g>
  </g>
</svg>
