<svg xmlns="http://www.w3.org/2000/svg" xmlns:xlink="http://www.w3.org/1999/xlink" width="84" height="84" viewBox="0 0 84 84">
  <defs>
    <filter id="Ellipse_87" x="0" y="0" width="84" height="84" filterUnits="userSpaceOnUse">
      <feOffset dy="3" input="SourceAlpha"/>
      <feGaussianBlur stdDeviation="3" result="blur"/>
      <feFlood flood-color="#7061fb" flood-opacity="0.2"/>
      <feComposite operator="in" in2="blur"/>
      <feComposite in="SourceGraphic"/>
    </filter>
  </defs>
  <g id="Instagram" transform="translate(-1295 -4327)">
    <g transform="matrix(1, 0, 0, 1, 1295, 4327)" filter="url(#Ellipse_87)">
      <circle id="Ellipse_87-2" data-name="Ellipse 87" cx="33" cy="33" r="33" transform="translate(9 6)" fill="#7061fb"/>
    </g>
    <g id="noun-instagram-5210110" transform="translate(1204 4303)">
      <path id="Path_31763" data-name="Path 31763" d="M142.8,46.668H123.2a6.54,6.54,0,0,0-6.533,6.533V72.8a6.54,6.54,0,0,0,6.533,6.533h19.6a6.539,6.539,0,0,0,6.533-6.533V53.2a6.539,6.539,0,0,0-6.533-6.533ZM146.066,72.8a3.27,3.27,0,0,1-3.267,3.267H123.2a3.27,3.27,0,0,1-3.267-3.267V53.2a3.27,3.27,0,0,1,3.267-3.267h19.6a3.27,3.27,0,0,1,3.267,3.267Z" fill="#fff"/>
      <path id="Path_31764" data-name="Path 31764" d="M253.2,175.9a7.294,7.294,0,1,0,5.15,2.136,7.286,7.286,0,0,0-5.15-2.136Zm0,11.306a4.024,4.024,0,1,1,2.842-1.178,4.021,4.021,0,0,1-2.842,1.178Z" transform="translate(-120.2 -120.186)" fill="#fff"/>
    </g>
  </g>
</svg>
