<svg xmlns="http://www.w3.org/2000/svg" xmlns:xlink="http://www.w3.org/1999/xlink" width="84" height="84" viewBox="0 0 84 84">
  <defs>
    <filter id="Ellipse_90" x="0" y="0" width="84" height="84" filterUnits="userSpaceOnUse">
      <feOffset dy="3" input="SourceAlpha"/>
      <feGaussianBlur stdDeviation="3" result="blur"/>
      <feFlood flood-color="#2edea4" flood-opacity="0.188"/>
      <feComposite operator="in" in2="blur"/>
      <feComposite in="SourceGraphic"/>
    </filter>
  </defs>
  <g id="Messengar" transform="translate(-550 -4326)">
    <g transform="matrix(1, 0, 0, 1, 550, 4326)" filter="url(#Ellipse_90)">
      <circle id="Ellipse_90-2" data-name="Ellipse 90" cx="33" cy="33" r="33" transform="translate(9 6)" fill="#2edea4"/>
    </g>
    <path id="Path_31741" data-name="Path 31741" d="M140.569,34.12A13.7,13.7,0,0,0,126.88,47.809a13.489,13.489,0,0,0,2.778,8.233l-2.526,5.607a1.328,1.328,0,0,0,.2,1.364,1.147,1.147,0,0,0,.909.455.985.985,0,0,0,.4-.051l7.476-2.627a13.259,13.259,0,0,0,4.445.758,13.714,13.714,0,0,0,0-27.428Zm0,24.852a12.079,12.079,0,0,1-3.991-.707,1.268,1.268,0,0,0-.96.051l-5,1.768,1.616-3.637a1.242,1.242,0,0,0-.2-1.364,11.176,11.176,0,1,1,8.537,3.89Z" transform="translate(451.456 4316.206)" fill="#fff" stroke="#fff" stroke-width="1"/>
  </g>
</svg>
