<svg xmlns="http://www.w3.org/2000/svg" width="16" height="16" viewBox="0 0 16 16">
  <g id="Polygon_13" data-name="Polygon 13" fill="#fff">
    <path d="M 7.999999523162842 13.84314918518066 C 7.065119743347168 13.84314918518066 6.186189651489258 13.479079246521 5.525119304656982 12.81801986694336 L 3.181979417800903 10.47487926483154 C 1.817329525947571 9.1102294921875 1.817329525947571 6.889769554138184 3.181979417800903 5.525119304656982 L 5.525119304656982 3.181979417800903 C 6.186189651489258 2.520919561386108 7.065119743347168 2.156859636306763 7.999999523162842 2.156859636306763 C 8.934879302978516 2.156859636306763 9.813809394836426 2.520919561386108 10.47487926483154 3.181979417800903 L 12.81801986694336 5.525119304656982 C 14.1826696395874 6.889769554138184 14.1826696395874 9.1102294921875 12.81801986694336 10.47487926483154 L 10.47487926483154 12.81801986694336 C 9.813809394836426 13.479079246521 8.934879302978516 13.84314918518066 7.999999523162842 13.84314918518066 Z" stroke="none"/>
    <path d="M 7.999999523162842 2.65684986114502 C 7.19866943359375 2.65684986114502 6.445309638977051 2.96890926361084 5.878679275512695 3.535539627075195 L 3.535539627075195 5.878679275512695 C 2.365839958190918 7.048379898071289 2.365839958190918 8.951620101928711 3.535539627075195 10.12131881713867 L 5.878679275512695 12.46445941925049 C 6.44529914855957 13.03108978271484 7.19866943359375 13.3431396484375 7.999999523162842 13.3431396484375 C 8.801329612731934 13.3431396484375 9.554698944091797 13.03108978271484 10.12131881713867 12.46445941925049 L 12.46445941925049 10.12131881713867 C 13.63415908813477 8.951620101928711 13.63415908813477 7.048379898071289 12.46445941925049 5.878679275512695 L 10.12131881713867 3.535539627075195 C 9.554689407348633 2.96890926361084 8.801329612731934 2.65684986114502 7.999999523162842 2.65684986114502 M 7.999999523162842 1.656854629516602 C 9.023689270019531 1.656854629516602 10.04737949371338 2.047379493713379 10.82843017578125 2.828429222106934 L 13.17156982421875 5.17156982421875 C 14.73366928100586 6.733669281005859 14.73366928100586 9.266328811645508 13.17156982421875 10.82843017578125 L 10.82843017578125 13.17156982421875 C 9.266328811645508 14.73366928100586 6.733670234680176 14.73367023468018 5.17156982421875 13.17156982421875 L 2.828429222106934 10.82843017578125 C 1.266329765319824 9.266328811645508 1.266329765319824 6.733669281005859 2.828429222106934 5.17156982421875 L 5.17156982421875 2.828429222106934 C 5.952619552612305 2.047379493713379 6.976309776306152 1.656854629516602 7.999999523162842 1.656854629516602 Z" stroke="none" fill="#7061fb"/>
  </g>
</svg>
