<svg xmlns="http://www.w3.org/2000/svg" xmlns:xlink="http://www.w3.org/1999/xlink" width="84" height="84" viewBox="0 0 84 84">
  <defs>
    <filter id="Ellipse_88" x="0" y="0" width="84" height="84" filterUnits="userSpaceOnUse">
      <feOffset dy="3" input="SourceAlpha"/>
      <feGaussianBlur stdDeviation="3" result="blur"/>
      <feFlood flood-color="#02d5e0" flood-opacity="0.2"/>
      <feComposite operator="in" in2="blur"/>
      <feComposite in="SourceGraphic"/>
    </filter>
  </defs>
  <g id="Twitter" transform="translate(-1276 -4630)">
    <g transform="matrix(1, 0, 0, 1, 1276, 4630)" filter="url(#Ellipse_88)">
      <circle id="Ellipse_88-2" data-name="Ellipse 88" cx="33" cy="33" r="33" transform="translate(9 6)" fill="#02d5e0"/>
    </g>
    <path id="icon_twitter" d="M30,2.9a14.039,14.039,0,0,1-3.5,1A6.473,6.473,0,0,0,29.2.5,13.157,13.157,0,0,1,25.3,2a6.071,6.071,0,0,0-4.5-2,6.231,6.231,0,0,0-6.2,6.2,5.9,5.9,0,0,0,.2,1.4A17.42,17.42,0,0,1,2.1,1.1a6.5,6.5,0,0,0-.8,3.1A6.249,6.249,0,0,0,4,9.3a6.438,6.438,0,0,1-2.8-.7v.1a6.036,6.036,0,0,0,4.9,6,8.752,8.752,0,0,1-1.6.2,4.869,4.869,0,0,1-1.2-.1A6.367,6.367,0,0,0,9,19.1a12.063,12.063,0,0,1-7.6,2.6,7.569,7.569,0,0,1-1.5-.1,17.871,17.871,0,0,0,9.4,2.8c11.3,0,17.5-9.4,17.5-17.5V6.1A12.167,12.167,0,0,0,30,2.9Z" transform="translate(1304.1 4658.801)" fill="#fff"/>
  </g>
</svg>
