<svg xmlns="http://www.w3.org/2000/svg" xmlns:xlink="http://www.w3.org/1999/xlink" width="90" height="90" viewBox="0 0 90 90">
  <defs>
    <filter id="Path_31731" x="0" y="0" width="90" height="90" filterUnits="userSpaceOnUse">
      <feOffset dx="3" dy="8" input="SourceAlpha"/>
      <feGaussianBlur stdDeviation="3" result="blur"/>
      <feFlood flood-color="#606060" flood-opacity="0.259"/>
      <feComposite operator="in" in2="blur"/>
      <feComposite in="SourceGraphic"/>
    </filter>
  </defs>
  <g id="Group_26676" data-name="Group 26676" transform="translate(-1472 -2623)">
    <g transform="matrix(1, 0, 0, 1, 1472, 2623)" filter="url(#Path_31731)">
      <path id="Path_31731-2" data-name="Path 31731" d="M25,0H47A25,25,0,0,1,72,25V47A25,25,0,0,1,47,72H25A25,25,0,0,1,0,47V25A25,25,0,0,1,25,0Z" transform="translate(6 1)" fill="#ff136e"/>
    </g>
    <g id="Group_26673" data-name="Group 26673" transform="translate(86.957 -7.566)">
      <path id="Path_32687" data-name="Path 32687" d="M1427.041,2680.2h10.722l1.247-1.53s3.174-2.154,3.174-2.437.283-3.231.283-3.685a15.724,15.724,0,0,0-.737-3.685c-.34-.624-.453-.736-1.53-2.494s-.851-1.078-2.041-2.948-1.417-2.89-1.927-3.514-1.077-1.7-1.7-2.381a6.457,6.457,0,0,0-2.268-1.984c-1.02-.4-2.041-1.247-4.024-1.247s-3-.567-4.648.34-2.551,1.248-3.685,2.892a14.617,14.617,0,0,0-2.324,4.081,24.287,24.287,0,0,1-2.1,4.365,8.035,8.035,0,0,1-1.871,2.323c-1.417,1.475-1.927,1.191-2.268,2.722a7.568,7.568,0,0,0,.51,4.648c.68,1.813,1.077,2.946,2.21,3.57s2.495,1.871,4.365,1.758,5.385.057,6.009,0A18.71,18.71,0,0,0,1427.041,2680.2Z" fill="rgba(196,27,92,0.45)"/>
      <path id="Path_28611" data-name="Path 28611" d="M163.633,228.313a8.644,8.644,0,0,0-4.174-4.616,10.667,10.667,0,0,0-10.5-8.741c-.09,0-.182,0-.274,0a10.62,10.62,0,0,0-10.9,10.079,7.919,7.919,0,0,0,3.17,15.127h14.694a8.706,8.706,0,0,0,7.979-11.852Z" transform="translate(1278.354 2440.417)" fill="none" stroke="#f2faff" stroke-width="3.5"/>
      <path id="Path_28622" data-name="Path 28622" d="M155.435,236.614a1.146,1.146,0,1,1-1.728-1.507l3.467-3.977c.022-.024.044-.049.068-.072a1.137,1.137,0,0,1,.317-.225c.024-.01.047-.022.071-.031h0a1.06,1.06,0,0,1,.3-.072h0c.041,0,.08-.006.12-.006h0a1.173,1.173,0,0,1,.127.007h0a1.148,1.148,0,0,1,.267.063h0c.03.011.06.023.09.038a1.128,1.128,0,0,1,.323.228c.022.022.045.046.065.07l3.467,3.977a1.146,1.146,0,1,1-1.728,1.507l-1.47-1.686v6.511a1.146,1.146,0,0,1-2.291,0v-6.511Z" transform="translate(1268.99 2433.134)" fill="#f2faff" stroke="#f2faff" stroke-width="0.5"/>
    </g>
  </g>
</svg>
