<svg xmlns="http://www.w3.org/2000/svg" width="47.777" height="39.295" viewBox="0 0 47.777 39.295">
  <g id="Group_26658" data-name="Group 26658" transform="translate(-699.5 -320.156)">
    <path id="Path_28611" data-name="Path 28611" d="M177.036,234.186a12.445,12.445,0,0,0-6.009-6.646,15.357,15.357,0,0,0-15.111-12.584c-.13,0-.262,0-.394,0a15.29,15.29,0,0,0-15.692,14.51,11.4,11.4,0,0,0,4.564,21.778h21.155a12.534,12.534,0,0,0,11.487-17.064Z" transform="translate(567.85 106.701)" fill="none" stroke="#1bcc96" stroke-width="3"/>
    <path id="Path_28622" data-name="Path 28622" d="M156.319,239.2a1.65,1.65,0,1,1-2.487-2.169l4.991-5.725c.031-.035.063-.071.1-.1a1.636,1.636,0,0,1,.457-.323c.035-.015.068-.031.1-.045h0a1.529,1.529,0,0,1,.427-.1v0c.059,0,.115-.008.173-.008h0a1.7,1.7,0,0,1,.183.01h0a1.653,1.653,0,0,1,.384.091h0l0,0c.043.017.086.033.13.054a1.624,1.624,0,0,1,.465.328c.031.031.064.066.094.1l4.991,5.725a1.65,1.65,0,1,1-2.487,2.169l-2.116-2.428v9.374a1.649,1.649,0,1,1-3.3,0v-9.374Z" transform="translate(563.282 103.149)" fill="#1bcc96" stroke="#141414" stroke-width="0.5"/>
  </g>
</svg>
